<?xml version="1.0" encoding="UTF-8"?>
<svg xmlns="http://www.w3.org/2000/svg" width="1180" height="596" viewBox="0 0 1180 596" role="img" aria-labelledby="kap-by-bangalore-locality-title kap-by-bangalore-locality-subtitle">
  <defs>
    <filter id="softShadow" x="-20%" y="-20%" width="140%" height="140%">
      <feDropShadow dx="0" dy="12" stdDeviation="16" flood-color="#0f1a24" flood-opacity="0.08" />
    </filter>
    
  </defs>
  <style>
  .title { font: 700 30px "Avenir Next", "Segoe UI", sans-serif; fill: #12202c; }
  .subtitle { font: 500 15px "Avenir Next", "Segoe UI", sans-serif; fill: #5f6c77; }
  .axis { font: 500 13px "Avenir Next", "Segoe UI", sans-serif; fill: #5f6c77; }
  .label { font: 600 15px "Avenir Next", "Segoe UI", sans-serif; fill: #12202c; }
  .labelMuted { font: 500 13px "Avenir Next", "Segoe UI", sans-serif; fill: #5f6c77; }
  .value { font: 700 14px "Avenir Next", "Segoe UI", sans-serif; fill: #12202c; }
  .small { font: 500 12px "Avenir Next", "Segoe UI", sans-serif; fill: #5f6c77; }
  .grid { stroke: #d7ddd7; stroke-width: 1; stroke-dasharray: 2 6; }
  .axisLine { stroke: #5f6c77; stroke-width: 1.25; }
</style>
  <rect x="0" y="0" width="1180" height="596" rx="30" fill="#fcfaf5" />
  <rect x="16" y="16" width="1148" height="564" rx="26" fill="#f7f3ea" stroke="#d7ddd7" />
  <text id="kap-by-bangalore-locality-title" class="title" x="52" y="68"><tspan x="52" dy="0">KAP by Bangalore locality</tspan></text>
  <text id="kap-by-bangalore-locality-subtitle" class="subtitle" x="52" y="96"><tspan x="52" dy="0">Localities shown individually once they reach at least five responses.</tspan></text>
  <line class="grid" x1="380" x2="380" y1="140" y2="554" /><text class="axis" text-anchor="middle" x="380" y="578">0%</text><line class="grid" x1="520" x2="520" y1="140" y2="554" /><text class="axis" text-anchor="middle" x="520" y="578">20%</text><line class="grid" x1="660" x2="660" y1="140" y2="554" /><text class="axis" text-anchor="middle" x="660" y="578">40%</text><line class="grid" x1="800" x2="800" y1="140" y2="554" /><text class="axis" text-anchor="middle" x="800" y="578">60%</text><line class="grid" x1="940" x2="940" y1="140" y2="554" /><text class="axis" text-anchor="middle" x="940" y="578">80%</text><line class="grid" x1="1080" x2="1080" y1="140" y2="554" /><text class="axis" text-anchor="middle" x="1080" y="578">100%</text>
        <circle cx="420" cy="126" r="7" fill="#1c7c74" />
        <text class="labelMuted" x="434" y="131">Knowledge</text>
      
        <circle cx="590" cy="126" r="7" fill="#d78f2f" />
        <text class="labelMuted" x="604" y="131">Attitude</text>
      
        <circle cx="760" cy="126" r="7" fill="#234d70" />
        <text class="labelMuted" x="774" y="131">Practice</text>
      <line x1="835" x2="940" y1="164" y2="164" stroke="#c2cbc2" stroke-width="4" stroke-linecap="round" /><circle cx="835" cy="164" r="10" fill="#1c7c74" stroke="#fcfaf5" stroke-width="3" /><circle cx="856.6999999999999" cy="164" r="10" fill="#d78f2f" stroke="#fcfaf5" stroke-width="3" /><circle cx="940" cy="164" r="10" fill="#234d70" stroke="#fcfaf5" stroke-width="3" /><text class="label" text-anchor="start" x="44" y="169"><tspan x="44" dy="0">Whitefield</tspan></text><text class="labelMuted" x="300" y="169">n=8</text><line x1="829.4000000000001" x2="924.6" y1="222" y2="222" stroke="#c2cbc2" stroke-width="4" stroke-linecap="round" /><circle cx="829.4000000000001" cy="222" r="10" fill="#1c7c74" stroke="#fcfaf5" stroke-width="3" /><circle cx="856.6999999999999" cy="222" r="10" fill="#d78f2f" stroke="#fcfaf5" stroke-width="3" /><circle cx="924.6" cy="222" r="10" fill="#234d70" stroke="#fcfaf5" stroke-width="3" /><text class="label" text-anchor="start" x="44" y="227"><tspan x="44" dy="0">JP Nagar</tspan></text><text class="labelMuted" x="300" y="227">n=12</text><line x1="817.5" x2="913.4" y1="280" y2="280" stroke="#c2cbc2" stroke-width="4" stroke-linecap="round" /><circle cx="817.5" cy="280" r="10" fill="#1c7c74" stroke="#fcfaf5" stroke-width="3" /><circle cx="885.4" cy="280" r="10" fill="#d78f2f" stroke="#fcfaf5" stroke-width="3" /><circle cx="913.4" cy="280" r="10" fill="#234d70" stroke="#fcfaf5" stroke-width="3" /><text class="label" text-anchor="start" x="44" y="285"><tspan x="44" dy="0">HSR Layout</tspan></text><text class="labelMuted" x="300" y="285">n=8</text><line x1="821.7" x2="881.9000000000001" y1="338" y2="338" stroke="#c2cbc2" stroke-width="4" stroke-linecap="round" /><circle cx="821.7" cy="338" r="10" fill="#1c7c74" stroke="#fcfaf5" stroke-width="3" /><circle cx="874.9000000000001" cy="338" r="10" fill="#d78f2f" stroke="#fcfaf5" stroke-width="3" /><circle cx="881.9000000000001" cy="338" r="10" fill="#234d70" stroke="#fcfaf5" stroke-width="3" /><text class="label" text-anchor="start" x="44" y="343"><tspan x="44" dy="0">Bangalore (Unspecified)</tspan></text><text class="labelMuted" x="300" y="343">n=58</text><line x1="800" x2="865.8000000000001" y1="396" y2="396" stroke="#c2cbc2" stroke-width="4" stroke-linecap="round" /><circle cx="800" cy="396" r="10" fill="#1c7c74" stroke="#fcfaf5" stroke-width="3" /><circle cx="865.8000000000001" cy="396" r="10" fill="#d78f2f" stroke="#fcfaf5" stroke-width="3" /><circle cx="859.5" cy="396" r="10" fill="#234d70" stroke="#fcfaf5" stroke-width="3" /><text class="label" text-anchor="start" x="44" y="401"><tspan x="44" dy="0">Other Bangalore</tspan><tspan x="44" dy="16">localities</tspan></text><text class="labelMuted" x="300" y="401">n=47</text><line x1="832.1999999999999" x2="887.5" y1="454" y2="454" stroke="#c2cbc2" stroke-width="4" stroke-linecap="round" /><circle cx="843.4000000000001" cy="454" r="10" fill="#1c7c74" stroke="#fcfaf5" stroke-width="3" /><circle cx="887.5" cy="454" r="10" fill="#d78f2f" stroke="#fcfaf5" stroke-width="3" /><circle cx="832.1999999999999" cy="454" r="10" fill="#234d70" stroke="#fcfaf5" stroke-width="3" /><text class="label" text-anchor="start" x="44" y="459"><tspan x="44" dy="0">Bellandur</tspan></text><text class="labelMuted" x="300" y="459">n=8</text><line x1="767.0999999999999" x2="1024" y1="512" y2="512" stroke="#c2cbc2" stroke-width="4" stroke-linecap="round" /><circle cx="1024" cy="512" r="10" fill="#1c7c74" stroke="#fcfaf5" stroke-width="3" /><circle cx="772" cy="512" r="10" fill="#d78f2f" stroke="#fcfaf5" stroke-width="3" /><circle cx="767.0999999999999" cy="512" r="10" fill="#234d70" stroke="#fcfaf5" stroke-width="3" /><text class="label" text-anchor="start" x="44" y="517"><tspan x="44" dy="0">Ulsoor</tspan></text><text class="labelMuted" x="300" y="517">n=5</text>
</svg>