<?xml version="1.0" encoding="UTF-8"?>
<svg xmlns="http://www.w3.org/2000/svg" width="1180" height="364" viewBox="0 0 1180 364" role="img" aria-labelledby="bangalore-versus-outside-bangalore-title bangalore-versus-outside-bangalore-subtitle">
  <defs>
    <filter id="softShadow" x="-20%" y="-20%" width="140%" height="140%">
      <feDropShadow dx="0" dy="12" stdDeviation="16" flood-color="#0f1a24" flood-opacity="0.08" />
    </filter>
    
  </defs>
  <style>
  .title { font: 700 30px "Avenir Next", "Segoe UI", sans-serif; fill: #12202c; }
  .subtitle { font: 500 15px "Avenir Next", "Segoe UI", sans-serif; fill: #5f6c77; }
  .axis { font: 500 13px "Avenir Next", "Segoe UI", sans-serif; fill: #5f6c77; }
  .label { font: 600 15px "Avenir Next", "Segoe UI", sans-serif; fill: #12202c; }
  .labelMuted { font: 500 13px "Avenir Next", "Segoe UI", sans-serif; fill: #5f6c77; }
  .value { font: 700 14px "Avenir Next", "Segoe UI", sans-serif; fill: #12202c; }
  .small { font: 500 12px "Avenir Next", "Segoe UI", sans-serif; fill: #5f6c77; }
  .grid { stroke: #d7ddd7; stroke-width: 1; stroke-dasharray: 2 6; }
  .axisLine { stroke: #5f6c77; stroke-width: 1.25; }
</style>
  <rect x="0" y="0" width="1180" height="364" rx="30" fill="#fcfaf5" />
  <rect x="16" y="16" width="1148" height="332" rx="26" fill="#f7f3ea" stroke="#d7ddd7" />
  <text id="bangalore-versus-outside-bangalore-title" class="title" x="52" y="68"><tspan x="52" dy="0">Bangalore versus outside Bangalore</tspan></text>
  <text id="bangalore-versus-outside-bangalore-subtitle" class="subtitle" x="52" y="96"><tspan x="52" dy="0">Mean domain scores by geo scope.</tspan></text>
  <line class="grid" x1="380" x2="380" y1="140" y2="322" /><text class="axis" text-anchor="middle" x="380" y="346">0.0%</text><line class="grid" x1="520" x2="520" y1="140" y2="322" /><text class="axis" text-anchor="middle" x="520" y="346">20.0%</text><line class="grid" x1="660" x2="660" y1="140" y2="322" /><text class="axis" text-anchor="middle" x="660" y="346">40.0%</text><line class="grid" x1="800" x2="800" y1="140" y2="322" /><text class="axis" text-anchor="middle" x="800" y="346">60.0%</text><line class="grid" x1="940" x2="940" y1="140" y2="322" /><text class="axis" text-anchor="middle" x="940" y="346">80.0%</text><line class="grid" x1="1080" x2="1080" y1="140" y2="322" /><text class="axis" text-anchor="middle" x="1080" y="346">100.0%</text>
        <circle cx="460" cy="126" r="7" fill="#d8654d" />
        <text class="labelMuted" x="474" y="131">Outside Bangalore</text>
      
        <circle cx="630" cy="126" r="7" fill="#1c7c74" />
        <text class="labelMuted" x="644" y="131">Bangalore</text>
      <line x1="823.8" x2="827.3" y1="164" y2="164" stroke="#c5cdcf" stroke-width="5" stroke-linecap="round" /><circle cx="827.3" cy="164" r="11" fill="#d8654d" stroke="#fcfaf5" stroke-width="3" /><circle cx="823.8" cy="164" r="11" fill="#1c7c74" stroke="#fcfaf5" stroke-width="3" /><text class="label" text-anchor="start" x="44" y="169"><tspan x="44" dy="0">Knowledge</tspan></text><line x1="842.6999999999999" x2="867.2" y1="222" y2="222" stroke="#c5cdcf" stroke-width="5" stroke-linecap="round" /><circle cx="842.6999999999999" cy="222" r="11" fill="#d8654d" stroke="#fcfaf5" stroke-width="3" /><circle cx="867.2" cy="222" r="11" fill="#1c7c74" stroke="#fcfaf5" stroke-width="3" /><text class="label" text-anchor="start" x="44" y="227"><tspan x="44" dy="0">Attitude</tspan></text><line x1="857.4000000000001" x2="876.3000000000001" y1="280" y2="280" stroke="#c5cdcf" stroke-width="5" stroke-linecap="round" /><circle cx="857.4000000000001" cy="280" r="11" fill="#d8654d" stroke="#fcfaf5" stroke-width="3" /><circle cx="876.3000000000001" cy="280" r="11" fill="#1c7c74" stroke="#fcfaf5" stroke-width="3" /><text class="label" text-anchor="start" x="44" y="285"><tspan x="44" dy="0">Practice</tspan></text>
</svg>