<?xml version="1.0" encoding="UTF-8"?>
<svg xmlns="http://www.w3.org/2000/svg" width="1120" height="640" viewBox="0 0 1120 640" role="img" aria-labelledby="bangalore-versus-outside-bangalore-title bangalore-versus-outside-bangalore-subtitle">
  <defs>
    <filter id="softShadow" x="-20%" y="-20%" width="140%" height="140%">
      <feDropShadow dx="0" dy="12" stdDeviation="16" flood-color="#0f1a24" flood-opacity="0.08" />
    </filter>
    
  </defs>
  <style>
  .title { font: 700 30px "Avenir Next", "Segoe UI", sans-serif; fill: #12202c; }
  .subtitle { font: 500 15px "Avenir Next", "Segoe UI", sans-serif; fill: #5f6c77; }
  .axis { font: 500 13px "Avenir Next", "Segoe UI", sans-serif; fill: #5f6c77; }
  .label { font: 600 15px "Avenir Next", "Segoe UI", sans-serif; fill: #12202c; }
  .labelMuted { font: 500 13px "Avenir Next", "Segoe UI", sans-serif; fill: #5f6c77; }
  .value { font: 700 14px "Avenir Next", "Segoe UI", sans-serif; fill: #12202c; }
  .small { font: 500 12px "Avenir Next", "Segoe UI", sans-serif; fill: #5f6c77; }
  .grid { stroke: #d7ddd7; stroke-width: 1; stroke-dasharray: 2 6; }
  .axisLine { stroke: #5f6c77; stroke-width: 1.25; }
</style>
  <rect x="0" y="0" width="1120" height="640" rx="30" fill="#fcfaf5" />
  <rect x="16" y="16" width="1088" height="608" rx="26" fill="#f7f3ea" stroke="#d7ddd7" />
  <text id="bangalore-versus-outside-bangalore-title" class="title" x="52" y="68"><tspan x="52" dy="0">Bangalore versus outside Bangalore</tspan></text>
  <text id="bangalore-versus-outside-bangalore-subtitle" class="subtitle" x="52" y="96"><tspan x="52" dy="0">All 251 respondents grouped by primary geographic scope.</tspan></text>
  
      <g filter="url(#softShadow)">
        <path d="M 181.26838584390543 461.9670661100682 A 140 140 0 1 0 250 200 L 250 256 A 84 84 0 1 1 208.76103150634327 413.1802396660409 Z" fill="#1c7c74" stroke="#fcfaf5" stroke-width="3" /><path d="M 249.99999999999997 200 A 140 140 0 0 0 181.26838584390543 461.9670661100682 L 208.76103150634327 413.1802396660409 A 84 84 0 0 1 249.99999999999997 256 Z" fill="#234d70" stroke="#fcfaf5" stroke-width="3" />
        <circle cx="250" cy="340" r="80" fill="#fcfaf5" />
      </g>
      <text class="title" text-anchor="middle" x="250" y="326"><tspan x="250" dy="0">251</tspan><tspan x="250" dy="28">respondents</tspan></text>
      <text class="subtitle" x="560" y="166">Legend</text>
      
      <rect x="560" y="206" width="18" height="18" rx="4" fill="#1c7c74" />
      <text class="label" x="590" y="220">Bangalore</text>
      <text class="labelMuted" x="590" y="242">146 respondents (58.2%)</text>
    
      <rect x="560" y="274" width="18" height="18" rx="4" fill="#234d70" />
      <text class="label" x="590" y="288">Outside Bangalore</text>
      <text class="labelMuted" x="590" y="310">105 respondents (41.8%)</text>
    
    
</svg>