<?xml version="1.0" encoding="UTF-8"?>
<svg xmlns="http://www.w3.org/2000/svg" width="1120" height="612" viewBox="0 0 1120 612" role="img" aria-labelledby="top-bangalore-localities-in-the-sample-title top-bangalore-localities-in-the-sample-subtitle">
  <defs>
    <filter id="softShadow" x="-20%" y="-20%" width="140%" height="140%">
      <feDropShadow dx="0" dy="12" stdDeviation="16" flood-color="#0f1a24" flood-opacity="0.08" />
    </filter>
    
  </defs>
  <style>
  .title { font: 700 30px "Avenir Next", "Segoe UI", sans-serif; fill: #12202c; }
  .subtitle { font: 500 15px "Avenir Next", "Segoe UI", sans-serif; fill: #5f6c77; }
  .axis { font: 500 13px "Avenir Next", "Segoe UI", sans-serif; fill: #5f6c77; }
  .label { font: 600 15px "Avenir Next", "Segoe UI", sans-serif; fill: #12202c; }
  .labelMuted { font: 500 13px "Avenir Next", "Segoe UI", sans-serif; fill: #5f6c77; }
  .value { font: 700 14px "Avenir Next", "Segoe UI", sans-serif; fill: #12202c; }
  .small { font: 500 12px "Avenir Next", "Segoe UI", sans-serif; fill: #5f6c77; }
  .grid { stroke: #d7ddd7; stroke-width: 1; stroke-dasharray: 2 6; }
  .axisLine { stroke: #5f6c77; stroke-width: 1.25; }
</style>
  <rect x="0" y="0" width="1120" height="612" rx="30" fill="#fcfaf5" />
  <rect x="16" y="16" width="1088" height="580" rx="26" fill="#f7f3ea" stroke="#d7ddd7" />
  <text id="top-bangalore-localities-in-the-sample-title" class="title" x="52" y="68"><tspan x="52" dy="0">Top Bangalore localities in the sample</tspan></text>
  <text id="top-bangalore-localities-in-the-sample-subtitle" class="subtitle" x="52" y="96"><tspan x="52" dy="0">Displayed individually once a locality reaches at least three responses.</tspan></text>
  <line class="grid" x1="360" x2="360" y1="134" y2="564" /><text class="axis" text-anchor="middle" x="360" y="592">0</text><line class="grid" x1="530" x2="530" y1="134" y2="564" /><text class="axis" text-anchor="middle" x="530" y="592">25</text><line class="grid" x1="700" x2="700" y1="134" y2="564" /><text class="axis" text-anchor="middle" x="700" y="592">50</text><line class="grid" x1="870" x2="870" y1="134" y2="564" /><text class="axis" text-anchor="middle" x="870" y="592">75</text><line class="grid" x1="1040" x2="1040" y1="134" y2="564" /><text class="axis" text-anchor="middle" x="1040" y="592">100</text><rect x="360" y="150" width="680" height="22" rx="11" fill="#ebe6db" /><rect x="360" y="150" width="394.4" height="22" rx="11" fill="#1c7c74" /><text class="label" text-anchor="start" x="44" y="166"><tspan x="44" dy="0">Bangalore (Unspecified)</tspan></text><text class="value" x="766.4" y="166">58</text><rect x="360" y="204" width="680" height="22" rx="11" fill="#ebe6db" /><rect x="360" y="204" width="102" height="22" rx="11" fill="rgb(131, 174, 158)" /><text class="label" text-anchor="start" x="44" y="220"><tspan x="44" dy="0">Other Bangalore localities</tspan></text><text class="value" x="474" y="220">15</text><rect x="360" y="258" width="680" height="22" rx="11" fill="#ebe6db" /><rect x="360" y="258" width="81.6" height="22" rx="11" fill="rgb(121, 169, 153)" /><text class="label" text-anchor="start" x="44" y="274"><tspan x="44" dy="0">JP Nagar</tspan></text><text class="value" x="453.6" y="274">12</text><rect x="360" y="312" width="680" height="22" rx="11" fill="#ebe6db" /><rect x="360" y="312" width="54.4" height="22" rx="11" fill="rgb(110, 164, 149)" /><text class="label" text-anchor="start" x="44" y="328"><tspan x="44" dy="0">Bellandur</tspan></text><text class="value" x="426.4" y="328">8</text><rect x="360" y="366" width="680" height="22" rx="11" fill="#ebe6db" /><rect x="360" y="366" width="54.4" height="22" rx="11" fill="rgb(100, 159, 145)" /><text class="label" text-anchor="start" x="44" y="382"><tspan x="44" dy="0">HSR Layout</tspan></text><text class="value" x="426.4" y="382">8</text><rect x="360" y="420" width="680" height="22" rx="11" fill="#ebe6db" /><rect x="360" y="420" width="54.4" height="22" rx="11" fill="rgb(90, 154, 141)" /><text class="label" text-anchor="start" x="44" y="436"><tspan x="44" dy="0">Whitefield</tspan></text><text class="value" x="426.4" y="436">8</text><rect x="360" y="474" width="680" height="22" rx="11" fill="#ebe6db" /><rect x="360" y="474" width="34" height="22" rx="11" fill="rgb(80, 149, 137)" /><text class="label" text-anchor="start" x="44" y="490"><tspan x="44" dy="0">Ulsoor</tspan></text><text class="value" x="406" y="490">5</text><rect x="360" y="528" width="680" height="22" rx="11" fill="#ebe6db" /><rect x="360" y="528" width="27.2" height="22" rx="11" fill="rgb(69, 144, 133)" /><text class="label" text-anchor="start" x="44" y="544"><tspan x="44" dy="0">CV Raman Nagar</tspan></text><text class="value" x="399.2" y="544">4</text>
</svg>