<?xml version="1.0" encoding="UTF-8"?>
<svg xmlns="http://www.w3.org/2000/svg" width="1120" height="720" viewBox="0 0 1120 720" role="img" aria-labelledby="knowledge-items-ranked-by-percent-correct-title knowledge-items-ranked-by-percent-correct-subtitle">
  <defs>
    <filter id="softShadow" x="-20%" y="-20%" width="140%" height="140%">
      <feDropShadow dx="0" dy="12" stdDeviation="16" flood-color="#0f1a24" flood-opacity="0.08" />
    </filter>
    
  </defs>
  <style>
  .title { font: 700 30px "Avenir Next", "Segoe UI", sans-serif; fill: #12202c; }
  .subtitle { font: 500 15px "Avenir Next", "Segoe UI", sans-serif; fill: #5f6c77; }
  .axis { font: 500 13px "Avenir Next", "Segoe UI", sans-serif; fill: #5f6c77; }
  .label { font: 600 15px "Avenir Next", "Segoe UI", sans-serif; fill: #12202c; }
  .labelMuted { font: 500 13px "Avenir Next", "Segoe UI", sans-serif; fill: #5f6c77; }
  .value { font: 700 14px "Avenir Next", "Segoe UI", sans-serif; fill: #12202c; }
  .small { font: 500 12px "Avenir Next", "Segoe UI", sans-serif; fill: #5f6c77; }
  .grid { stroke: #d7ddd7; stroke-width: 1; stroke-dasharray: 2 6; }
  .axisLine { stroke: #5f6c77; stroke-width: 1.25; }
</style>
  <rect x="0" y="0" width="1120" height="720" rx="30" fill="#fcfaf5" />
  <rect x="16" y="16" width="1088" height="688" rx="26" fill="#f7f3ea" stroke="#d7ddd7" />
  <text id="knowledge-items-ranked-by-percent-correct-title" class="title" x="52" y="68"><tspan x="52" dy="0">Knowledge items ranked by percent correct</tspan></text>
  <text id="knowledge-items-ranked-by-percent-correct-subtitle" class="subtitle" x="52" y="96"><tspan x="52" dy="0">Lower values indicate the strongest misconceptions.</tspan></text>
  <line class="grid" x1="360" x2="360" y1="134" y2="672" /><text class="axis" text-anchor="middle" x="360" y="700">0%</text><line class="grid" x1="530" x2="530" y1="134" y2="672" /><text class="axis" text-anchor="middle" x="530" y="700">25%</text><line class="grid" x1="700" x2="700" y1="134" y2="672" /><text class="axis" text-anchor="middle" x="700" y="700">50%</text><line class="grid" x1="870" x2="870" y1="134" y2="672" /><text class="axis" text-anchor="middle" x="870" y="700">75%</text><line class="grid" x1="1040" x2="1040" y1="134" y2="672" /><text class="axis" text-anchor="middle" x="1040" y="700">100%</text><line x1="360" x2="615" y1="161" y2="161" stroke="#d7ddd7" stroke-width="6" stroke-linecap="round" /><circle cx="615" cy="161" r="12" fill="#d8654d" stroke="#fcfaf5" stroke-width="3" /><text class="label" text-anchor="start" x="44" y="166"><tspan x="44" dy="0">Cause</tspan></text><text class="value" x="633" y="166">37.5%</text><line x1="360" x2="709.52" y1="215" y2="215" stroke="#d7ddd7" stroke-width="6" stroke-linecap="round" /><circle cx="709.52" cy="215" r="12" fill="#1c7c74" stroke="#fcfaf5" stroke-width="3" /><text class="label" text-anchor="start" x="44" y="220"><tspan x="44" dy="0">Plaque</tspan></text><text class="value" x="727.52" y="220">51.4%</text><line x1="360" x2="709.52" y1="269" y2="269" stroke="#d7ddd7" stroke-width="6" stroke-linecap="round" /><circle cx="709.52" cy="269" r="12" fill="#1c7c74" stroke="#fcfaf5" stroke-width="3" /><text class="label" text-anchor="start" x="44" y="274"><tspan x="44" dy="0">Calculus</tspan></text><text class="value" x="727.52" y="274">51.4%</text><line x1="360" x2="723.12" y1="323" y2="323" stroke="#d7ddd7" stroke-width="6" stroke-linecap="round" /><circle cx="723.12" cy="323" r="12" fill="#1c7c74" stroke="#fcfaf5" stroke-width="3" /><text class="label" text-anchor="start" x="44" y="328"><tspan x="44" dy="0">Specialty</tspan></text><text class="value" x="741.12" y="328">53.4%</text><line x1="360" x2="731.28" y1="377" y2="377" stroke="#d7ddd7" stroke-width="6" stroke-linecap="round" /><circle cx="731.28" cy="377" r="12" fill="#1c7c74" stroke="#fcfaf5" stroke-width="3" /><text class="label" text-anchor="start" x="44" y="382"><tspan x="44" dy="0">Vitamin</tspan></text><text class="value" x="749.28" y="382">54.6%</text><line x1="360" x2="755.76" y1="431" y2="431" stroke="#d7ddd7" stroke-width="6" stroke-linecap="round" /><circle cx="755.76" cy="431" r="12" fill="#1c7c74" stroke="#fcfaf5" stroke-width="3" /><text class="label" text-anchor="start" x="44" y="436"><tspan x="44" dy="0">General health</tspan></text><text class="value" x="773.76" y="436">58.2%</text><line x1="360" x2="869.32" y1="485" y2="485" stroke="#d7ddd7" stroke-width="6" stroke-linecap="round" /><circle cx="869.32" cy="485" r="12" fill="#1c7c74" stroke="#fcfaf5" stroke-width="3" /><text class="label" text-anchor="start" x="44" y="490"><tspan x="44" dy="0">Stress</tspan></text><text class="value" x="887.32" y="490">74.9%</text><line x1="360" x2="899.2399999999999" y1="539" y2="539" stroke="#d7ddd7" stroke-width="6" stroke-linecap="round" /><circle cx="899.2399999999999" cy="539" r="12" fill="#1c7c74" stroke="#fcfaf5" stroke-width="3" /><text class="label" text-anchor="start" x="44" y="544"><tspan x="44" dy="0">Early sign</tspan></text><text class="value" x="917.2399999999999" y="544">79.3%</text><line x1="360" x2="953.64" y1="593" y2="593" stroke="#d7ddd7" stroke-width="6" stroke-linecap="round" /><circle cx="953.64" cy="593" r="12" fill="#1c7c74" stroke="#fcfaf5" stroke-width="3" /><text class="label" text-anchor="start" x="44" y="598"><tspan x="44" dy="0">Bad breath</tspan></text><text class="value" x="971.64" y="598">87.3%</text><line x1="360" x2="961.12" y1="647" y2="647" stroke="#d7ddd7" stroke-width="6" stroke-linecap="round" /><circle cx="961.12" cy="647" r="12" fill="#1c7c74" stroke="#fcfaf5" stroke-width="3" /><text class="label" text-anchor="start" x="44" y="652"><tspan x="44" dy="0">Diet</tspan></text><text class="value" x="979.12" y="652">88.4%</text>
</svg>